<svg width="20" height="20" viewBox="0 0 20 20" fill="none" xmlns="http://www.w3.org/2000/svg" aria-hidden="true">
  <path d="M18.3332 9.99935C18.3332 14.6017 14.6022 18.3327 9.99984 18.3327C5.39746 18.3327 1.6665 14.6017 1.6665 9.99935C1.6665 5.39698 5.39746 1.66602 9.99984 1.66602C14.6022 1.66602 18.3332 5.39698 18.3332 9.99935ZM14.5157 12.7695C14.6971 12.3465 14.5013 11.8566 14.0783 11.6751L10.8332 10.2833V5.41602C10.8332 4.95578 10.4601 4.58268 9.99984 4.58268C9.5396 4.58268 9.1665 4.95578 9.1665 5.41602V10.558C9.1665 11.0579 9.46436 11.5098 9.9238 11.7068L13.4214 13.2069C13.8443 13.3883 14.3343 13.1925 14.5157 12.7695Z" fill="black" fill-opacity="0.86"/>
</svg>
